<?xml version="1.0" encoding="UTF-8" standalone="no"?>
<!DOCTYPE svg PUBLIC "-//W3C//DTD SVG 1.1//EN"
 "http://www.w3.org/Graphics/SVG/1.1/DTD/svg11.dtd">
<!-- Generated by graphviz version 14.0.4 (20251115.1723)
 -->
<!-- Title: Uruuru Pages: 1 -->
<svg width="1264pt" height="849pt"
 viewBox="0.00 0.00 1264.00 849.00" xmlns="http://www.w3.org/2000/svg" xmlns:xlink="http://www.w3.org/1999/xlink">
<g id="graph0" class="graph" transform="scale(1 1) rotate(0) translate(28.8 820.55)">
<title>Uruuru</title>
<polygon fill="white" stroke="none" points="-28.8,28.8 -28.8,-820.55 1235.13,-820.55 1235.13,28.8 -28.8,28.8"/>
<text xml:space="preserve" text-anchor="middle" x="603.16" y="-775.4" font-family="Arial BoldMT" font-size="13.00">Uruuru domain model</text>
<!-- m_ActiveStorage::Attachment -->
<g id="node1" class="node">
<title>m_ActiveStorage::Attachment</title>
<path fill="none" stroke="black" d="M93.25,-180.15C93.25,-180.15 213.33,-180.15 213.33,-180.15 219.33,-180.15 225.33,-186.15 225.33,-192.15 225.33,-192.15 225.33,-226.05 225.33,-226.05 225.33,-232.05 219.33,-238.05 213.33,-238.05 213.33,-238.05 93.25,-238.05 93.25,-238.05 87.25,-238.05 81.25,-232.05 81.25,-226.05 81.25,-226.05 81.25,-192.15 81.25,-192.15 81.25,-186.15 87.25,-180.15 93.25,-180.15"/>
<text xml:space="preserve" text-anchor="start" x="87.16" y="-224" font-family="Arial BoldMT" font-size="11.00">ActiveStorage::Attachment</text>
<polyline fill="none" stroke="black" points="81.25,-218.85 225.33,-218.85"/>
<text xml:space="preserve" text-anchor="start" x="88.29" y="-204.75" font-family="ArialMT" font-size="10.00">name </text>
<text xml:space="preserve" text-anchor="start" x="115.29" y="-204.75" font-family="Arial ItalicMT" font-size="10.00" fill="#999999">string ∗</text>
<text xml:space="preserve" text-anchor="start" x="88.29" y="-190" font-family="ArialMT" font-size="10.00">record_type </text>
<text xml:space="preserve" text-anchor="start" x="142.29" y="-190" font-family="Arial ItalicMT" font-size="10.00" fill="#999999">string ∗</text>
</g>
<!-- m_ActiveStorage::Blob -->
<g id="node2" class="node">
<title>m_ActiveStorage::Blob</title>
<path fill="none" stroke="black" d="M16.25,-357.55C16.25,-357.55 136.33,-357.55 136.33,-357.55 142.33,-357.55 148.33,-363.55 148.33,-369.55 148.33,-369.55 148.33,-474.2 148.33,-474.2 148.33,-480.2 142.33,-486.2 136.33,-486.2 136.33,-486.2 16.25,-486.2 16.25,-486.2 10.25,-486.2 4.25,-480.2 4.25,-474.2 4.25,-474.2 4.25,-369.55 4.25,-369.55 4.25,-363.55 10.25,-357.55 16.25,-357.55"/>
<text xml:space="preserve" text-anchor="start" x="26.66" y="-472.15" font-family="Arial BoldMT" font-size="11.00">ActiveStorage::Blob</text>
<polyline fill="none" stroke="black" points="4.25,-467 148.33,-467"/>
<text xml:space="preserve" text-anchor="start" x="11.29" y="-452.9" font-family="ArialMT" font-size="10.00">byte_size </text>
<text xml:space="preserve" text-anchor="start" x="56.29" y="-452.9" font-family="Arial ItalicMT" font-size="10.00" fill="#999999">integer (8) ∗</text>
<text xml:space="preserve" text-anchor="start" x="11.29" y="-438.15" font-family="ArialMT" font-size="10.00">checksum </text>
<text xml:space="preserve" text-anchor="start" x="59.29" y="-438.15" font-family="Arial ItalicMT" font-size="10.00" fill="#999999">string ∗</text>
<text xml:space="preserve" text-anchor="start" x="11.29" y="-423.4" font-family="ArialMT" font-size="10.00">content_type </text>
<text xml:space="preserve" text-anchor="start" x="70.54" y="-423.4" font-family="Arial ItalicMT" font-size="10.00" fill="#999999">string</text>
<text xml:space="preserve" text-anchor="start" x="11.29" y="-410.15" font-family="ArialMT" font-size="10.00">filename </text>
<text xml:space="preserve" text-anchor="start" x="51.04" y="-410.15" font-family="Arial ItalicMT" font-size="10.00" fill="#999999">string ∗</text>
<text xml:space="preserve" text-anchor="start" x="11.29" y="-395.4" font-family="ArialMT" font-size="10.00">key </text>
<text xml:space="preserve" text-anchor="start" x="30.04" y="-395.4" font-family="Arial ItalicMT" font-size="10.00" fill="#999999">string ∗</text>
<text xml:space="preserve" text-anchor="start" x="11.29" y="-380.65" font-family="ArialMT" font-size="10.00">metadata </text>
<text xml:space="preserve" text-anchor="start" x="54.79" y="-380.65" font-family="Arial ItalicMT" font-size="10.00" fill="#999999">text</text>
<text xml:space="preserve" text-anchor="start" x="11.29" y="-367.4" font-family="ArialMT" font-size="10.00">service_name </text>
<text xml:space="preserve" text-anchor="start" x="75.04" y="-367.4" font-family="Arial ItalicMT" font-size="10.00" fill="#999999">string ∗</text>
</g>
<!-- m_ActiveStorage::Blob&#45;&gt;m_ActiveStorage::Attachment -->
<g id="edge2" class="edge">
<title>m_ActiveStorage::Blob&#45;&gt;m_ActiveStorage::Attachment</title>
<path fill="none" stroke="black" d="M99.6,-357.06C112.61,-321.47 128.36,-278.33 139.43,-248.03"/>
<polygon fill="black" stroke="black" points="142.35,-249.23 142.48,-239.7 136.43,-247.07 142.35,-249.23"/>
</g>
<!-- m_ActiveStorage::Blob&#45;&gt;m_ActiveStorage::Blob -->
<g id="edge6" class="edge">
<title>m_ActiveStorage::Blob&#45;&gt;m_ActiveStorage::Blob</title>
<path fill="none" stroke="black" stroke-dasharray="1,5" d="M148.49,-451.84C165.12,-449.26 177.33,-439.27 177.33,-421.87 177.33,-404.48 165.12,-394.49 148.49,-391.91"/>
</g>
<!-- m_ActiveStorage::VariantRecord -->
<g id="node3" class="node">
<title>m_ActiveStorage::VariantRecord</title>
<path fill="none" stroke="black" d="M12,-563.7C12,-563.7 140.58,-563.7 140.58,-563.7 146.58,-563.7 152.58,-569.7 152.58,-575.7 152.58,-575.7 152.58,-594.85 152.58,-594.85 152.58,-600.85 146.58,-606.85 140.58,-606.85 140.58,-606.85 12,-606.85 12,-606.85 6,-606.85 0,-600.85 0,-594.85 0,-594.85 0,-575.7 0,-575.7 0,-569.7 6,-563.7 12,-563.7"/>
<text xml:space="preserve" text-anchor="start" x="5.04" y="-592.8" font-family="Arial BoldMT" font-size="11.00">ActiveStorage::VariantRecord</text>
<polyline fill="none" stroke="black" points="0,-587.65 152.58,-587.65"/>
<text xml:space="preserve" text-anchor="start" x="11.29" y="-573.55" font-family="ArialMT" font-size="10.00">variation_digest </text>
<text xml:space="preserve" text-anchor="start" x="82.54" y="-573.55" font-family="Arial ItalicMT" font-size="10.00" fill="#999999">string ∗</text>
</g>
<!-- m_ActiveStorage::VariantRecord&#45;&gt;m_ActiveStorage::Attachment -->
<g id="edge3" class="edge">
<title>m_ActiveStorage::VariantRecord&#45;&gt;m_ActiveStorage::Attachment</title>
<path fill="none" stroke="black" d="M117.22,-563.24C140.67,-548.73 168.01,-527.05 181.29,-499.2 220.7,-416.54 190.11,-305.68 169,-248.22"/>
<polygon fill="black" stroke="black" points="171.98,-247.19 165.85,-239.88 166.08,-249.41 171.98,-247.19"/>
</g>
<!-- m_ActiveStorage::VariantRecord&#45;&gt;m_ActiveStorage::Blob -->
<g id="edge1" class="edge">
<title>m_ActiveStorage::VariantRecord&#45;&gt;m_ActiveStorage::Blob</title>
<path fill="none" stroke="black" d="M76.29,-563.51C76.29,-546.45 76.29,-521.2 76.29,-496.79"/>
<polygon fill="black" stroke="black" points="79.44,-496.92 76.29,-487.92 73.14,-496.92 79.44,-496.92"/>
</g>
<!-- m_Brand -->
<g id="node4" class="node">
<title>m_Brand</title>
<path fill="none" stroke="black" d="M525.25,-685.1C525.25,-685.1 645.33,-685.1 645.33,-685.1 651.33,-685.1 657.33,-691.1 657.33,-697.1 657.33,-697.1 657.33,-729.5 657.33,-729.5 657.33,-735.5 651.33,-741.5 645.33,-741.5 645.33,-741.5 525.25,-741.5 525.25,-741.5 519.25,-741.5 513.25,-735.5 513.25,-729.5 513.25,-729.5 513.25,-697.1 513.25,-697.1 513.25,-691.1 519.25,-685.1 525.25,-685.1"/>
<text xml:space="preserve" text-anchor="start" x="568.66" y="-727.45" font-family="Arial BoldMT" font-size="11.00">Brand</text>
<polyline fill="none" stroke="black" points="513.25,-722.3 657.33,-722.3"/>
<text xml:space="preserve" text-anchor="start" x="520.29" y="-708.2" font-family="ArialMT" font-size="10.00">name </text>
<text xml:space="preserve" text-anchor="start" x="547.29" y="-708.2" font-family="Arial ItalicMT" font-size="10.00" fill="#999999">string ∗ U</text>
<text xml:space="preserve" text-anchor="start" x="520.29" y="-693.45" font-family="ArialMT" font-size="10.00">slug </text>
<text xml:space="preserve" text-anchor="start" x="541.29" y="-693.45" font-family="Arial ItalicMT" font-size="10.00" fill="#999999">string</text>
</g>
<!-- m_Product -->
<g id="node14" class="node">
<title>m_Product</title>
<path fill="none" stroke="black" d="M612.25,-535.7C612.25,-535.7 732.33,-535.7 732.33,-535.7 738.33,-535.7 744.33,-541.7 744.33,-547.7 744.33,-547.7 744.33,-622.85 744.33,-622.85 744.33,-628.85 738.33,-634.85 732.33,-634.85 732.33,-634.85 612.25,-634.85 612.25,-634.85 606.25,-634.85 600.25,-628.85 600.25,-622.85 600.25,-622.85 600.25,-547.7 600.25,-547.7 600.25,-541.7 606.25,-535.7 612.25,-535.7"/>
<text xml:space="preserve" text-anchor="start" x="651.54" y="-620.8" font-family="Arial BoldMT" font-size="11.00">Product</text>
<polyline fill="none" stroke="black" points="600.25,-615.65 744.33,-615.65"/>
<text xml:space="preserve" text-anchor="start" x="607.29" y="-601.55" font-family="ArialMT" font-size="10.00">description </text>
<text xml:space="preserve" text-anchor="start" x="657.54" y="-601.55" font-family="Arial ItalicMT" font-size="10.00" fill="#999999">text</text>
<text xml:space="preserve" text-anchor="start" x="607.29" y="-588.3" font-family="ArialMT" font-size="10.00">favorites_count </text>
<text xml:space="preserve" text-anchor="start" x="677.04" y="-588.3" font-family="Arial ItalicMT" font-size="10.00" fill="#999999">integer ∗</text>
<text xml:space="preserve" text-anchor="start" x="607.29" y="-573.55" font-family="ArialMT" font-size="10.00">price </text>
<text xml:space="preserve" text-anchor="start" x="631.29" y="-573.55" font-family="Arial ItalicMT" font-size="10.00" fill="#999999">decimal (10,2)</text>
<text xml:space="preserve" text-anchor="start" x="607.29" y="-560.3" font-family="ArialMT" font-size="10.00">status </text>
<text xml:space="preserve" text-anchor="start" x="637.29" y="-560.3" font-family="Arial ItalicMT" font-size="10.00" fill="#999999">integer ∗</text>
<text xml:space="preserve" text-anchor="start" x="607.29" y="-545.55" font-family="ArialMT" font-size="10.00">title </text>
<text xml:space="preserve" text-anchor="start" x="626.04" y="-545.55" font-family="Arial ItalicMT" font-size="10.00" fill="#999999">string ∗</text>
</g>
<!-- m_Brand&#45;&gt;m_Product -->
<g id="edge15" class="edge">
<title>m_Brand&#45;&gt;m_Product</title>
<path fill="none" stroke="black" d="M604.38,-684.64C612.75,-672.53 622.89,-657.84 632.75,-643.54"/>
<polygon fill="black" stroke="black" points="635.14,-645.64 637.66,-636.44 629.95,-642.06 635.14,-645.64"/>
</g>
<!-- m_Cart -->
<g id="node5" class="node">
<title>m_Cart</title>
<path fill="none" stroke="black" d="M439.25,-191.1C439.25,-191.1 559.33,-191.1 559.33,-191.1 565.33,-191.1 571.33,-197.1 571.33,-203.1 571.33,-203.1 571.33,-215.1 571.33,-215.1 571.33,-221.1 565.33,-227.1 559.33,-227.1 559.33,-227.1 439.25,-227.1 439.25,-227.1 433.25,-227.1 427.25,-221.1 427.25,-215.1 427.25,-215.1 427.25,-203.1 427.25,-203.1 427.25,-197.1 433.25,-191.1 439.25,-191.1"/>
<text xml:space="preserve" text-anchor="start" x="486.79" y="-205.05" font-family="Arial BoldMT" font-size="11.00">Cart</text>
</g>
<!-- m_CartItem -->
<g id="node6" class="node">
<title>m_CartItem</title>
<path fill="none" stroke="black" d="M439.25,-15.25C439.25,-15.25 559.33,-15.25 559.33,-15.25 565.33,-15.25 571.33,-21.25 571.33,-27.25 571.33,-27.25 571.33,-46.4 571.33,-46.4 571.33,-52.4 565.33,-58.4 559.33,-58.4 559.33,-58.4 439.25,-58.4 439.25,-58.4 433.25,-58.4 427.25,-52.4 427.25,-46.4 427.25,-46.4 427.25,-27.25 427.25,-27.25 427.25,-21.25 433.25,-15.25 439.25,-15.25"/>
<text xml:space="preserve" text-anchor="start" x="476.29" y="-44.35" font-family="Arial BoldMT" font-size="11.00">CartItem</text>
<polyline fill="none" stroke="black" points="427.25,-39.2 571.33,-39.2"/>
<text xml:space="preserve" text-anchor="start" x="434.29" y="-25.1" font-family="ArialMT" font-size="10.00">quantity </text>
<text xml:space="preserve" text-anchor="start" x="471.79" y="-25.1" font-family="Arial ItalicMT" font-size="10.00" fill="#999999">integer ∗</text>
</g>
<!-- m_Cart&#45;&gt;m_CartItem -->
<g id="edge23" class="edge">
<title>m_Cart&#45;&gt;m_CartItem</title>
<path fill="none" stroke="black" d="M499.29,-190.84C499.29,-162.33 499.29,-105.03 499.29,-69.21"/>
<polygon fill="black" stroke="black" points="502.44,-69.35 499.29,-60.35 496.14,-69.35 502.44,-69.35"/>
</g>
<!-- m_Category -->
<g id="node7" class="node">
<title>m_Category</title>
<path fill="none" stroke="black" d="M698.25,-671.85C698.25,-671.85 818.33,-671.85 818.33,-671.85 824.33,-671.85 830.33,-677.85 830.33,-683.85 830.33,-683.85 830.33,-742.75 830.33,-742.75 830.33,-748.75 824.33,-754.75 818.33,-754.75 818.33,-754.75 698.25,-754.75 698.25,-754.75 692.25,-754.75 686.25,-748.75 686.25,-742.75 686.25,-742.75 686.25,-683.85 686.25,-683.85 686.25,-677.85 692.25,-671.85 698.25,-671.85"/>
<text xml:space="preserve" text-anchor="start" x="734.16" y="-740.7" font-family="Arial BoldMT" font-size="11.00">Category</text>
<polyline fill="none" stroke="black" points="686.25,-735.55 830.33,-735.55"/>
<text xml:space="preserve" text-anchor="start" x="693.29" y="-721.45" font-family="ArialMT" font-size="10.00">ancestry </text>
<text xml:space="preserve" text-anchor="start" x="733.79" y="-721.45" font-family="Arial ItalicMT" font-size="10.00" fill="#999999">string</text>
<text xml:space="preserve" text-anchor="start" x="693.29" y="-708.2" font-family="ArialMT" font-size="10.00">description </text>
<text xml:space="preserve" text-anchor="start" x="743.54" y="-708.2" font-family="Arial ItalicMT" font-size="10.00" fill="#999999">text</text>
<text xml:space="preserve" text-anchor="start" x="693.29" y="-694.95" font-family="ArialMT" font-size="10.00">name </text>
<text xml:space="preserve" text-anchor="start" x="720.29" y="-694.95" font-family="Arial ItalicMT" font-size="10.00" fill="#999999">string ∗ U</text>
<text xml:space="preserve" text-anchor="start" x="693.29" y="-680.2" font-family="ArialMT" font-size="10.00">slug </text>
<text xml:space="preserve" text-anchor="start" x="714.29" y="-680.2" font-family="Arial ItalicMT" font-size="10.00" fill="#999999">string</text>
</g>
<!-- m_Category&#45;&gt;m_Product -->
<g id="edge14" class="edge">
<title>m_Category&#45;&gt;m_Product</title>
<path fill="none" stroke="black" d="M730.37,-671.38C724.36,-662.58 717.9,-653.12 711.55,-643.81"/>
<polygon fill="black" stroke="black" points="714.3,-642.25 706.62,-636.59 709.09,-645.8 714.3,-642.25"/>
</g>
<!-- m_Conversation -->
<g id="node8" class="node">
<title>m_Conversation</title>
<path fill="none" stroke="black" d="M805.25,-403.87C805.25,-403.87 925.33,-403.87 925.33,-403.87 931.33,-403.87 937.33,-409.87 937.33,-415.87 937.33,-415.87 937.33,-427.87 937.33,-427.87 937.33,-433.87 931.33,-439.87 925.33,-439.87 925.33,-439.87 805.25,-439.87 805.25,-439.87 799.25,-439.87 793.25,-433.87 793.25,-427.87 793.25,-427.87 793.25,-415.87 793.25,-415.87 793.25,-409.87 799.25,-403.87 805.25,-403.87"/>
<text xml:space="preserve" text-anchor="start" x="831.41" y="-417.82" font-family="Arial BoldMT" font-size="11.00">Conversation</text>
</g>
<!-- m_ConversationParticipant -->
<g id="node9" class="node">
<title>m_ConversationParticipant</title>
<path fill="none" stroke="black" d="M785.25,-191.1C785.25,-191.1 905.33,-191.1 905.33,-191.1 911.33,-191.1 917.33,-197.1 917.33,-203.1 917.33,-203.1 917.33,-215.1 917.33,-215.1 917.33,-221.1 911.33,-227.1 905.33,-227.1 905.33,-227.1 785.25,-227.1 785.25,-227.1 779.25,-227.1 773.25,-221.1 773.25,-215.1 773.25,-215.1 773.25,-203.1 773.25,-203.1 773.25,-197.1 779.25,-191.1 785.25,-191.1"/>
<text xml:space="preserve" text-anchor="start" x="785.91" y="-205.05" font-family="Arial BoldMT" font-size="11.00">ConversationParticipant</text>
</g>
<!-- m_Conversation&#45;&gt;m_ConversationParticipant -->
<g id="edge19" class="edge">
<title>m_Conversation&#45;&gt;m_ConversationParticipant</title>
<path fill="none" stroke="black" d="M863.65,-403.63C860.2,-367.19 852.12,-282.11 847.93,-237.89"/>
<polygon fill="black" stroke="black" points="851.08,-237.76 847.09,-229.09 844.81,-238.35 851.08,-237.76"/>
</g>
<!-- m_Message -->
<g id="node11" class="node">
<title>m_Message</title>
<path fill="none" stroke="black" d="M958.25,-187.52C958.25,-187.52 1078.33,-187.52 1078.33,-187.52 1084.33,-187.52 1090.33,-193.52 1090.33,-199.52 1090.33,-199.52 1090.33,-218.67 1090.33,-218.67 1090.33,-224.67 1084.33,-230.67 1078.33,-230.67 1078.33,-230.67 958.25,-230.67 958.25,-230.67 952.25,-230.67 946.25,-224.67 946.25,-218.67 946.25,-218.67 946.25,-199.52 946.25,-199.52 946.25,-193.52 952.25,-187.52 958.25,-187.52"/>
<text xml:space="preserve" text-anchor="start" x="994.54" y="-216.62" font-family="Arial BoldMT" font-size="11.00">Message</text>
<polyline fill="none" stroke="black" points="946.25,-211.47 1090.33,-211.47"/>
<text xml:space="preserve" text-anchor="start" x="953.29" y="-197.37" font-family="ArialMT" font-size="10.00">body </text>
<text xml:space="preserve" text-anchor="start" x="977.29" y="-197.37" font-family="Arial ItalicMT" font-size="10.00" fill="#999999">text ∗</text>
</g>
<!-- m_Conversation&#45;&gt;m_Message -->
<g id="edge11" class="edge">
<title>m_Conversation&#45;&gt;m_Message</title>
<path fill="none" stroke="black" d="M877.81,-403.63C903.97,-367.59 964.68,-283.96 997.06,-239.35"/>
<polygon fill="black" stroke="black" points="999.51,-241.33 1002.25,-232.2 994.41,-237.63 999.51,-241.33"/>
</g>
<!-- m_User -->
<g id="node15" class="node">
<title>m_User</title>
<path fill="none" stroke="black" d="M592.5,-345.05C592.5,-345.05 752.08,-345.05 752.08,-345.05 758.08,-345.05 764.08,-351.05 764.08,-357.05 764.08,-357.05 764.08,-486.7 764.08,-486.7 764.08,-492.7 758.08,-498.7 752.08,-498.7 752.08,-498.7 592.5,-498.7 592.5,-498.7 586.5,-498.7 580.5,-492.7 580.5,-486.7 580.5,-486.7 580.5,-357.05 580.5,-357.05 580.5,-351.05 586.5,-345.05 592.5,-345.05"/>
<text xml:space="preserve" text-anchor="start" x="658.66" y="-484.65" font-family="Arial BoldMT" font-size="11.00">User</text>
<polyline fill="none" stroke="black" points="580.5,-479.5 764.08,-479.5"/>
<text xml:space="preserve" text-anchor="start" x="587.54" y="-465.4" font-family="ArialMT" font-size="10.00">email </text>
<text xml:space="preserve" text-anchor="start" x="613.79" y="-465.4" font-family="Arial ItalicMT" font-size="10.00" fill="#999999">string ∗ U</text>
<text xml:space="preserve" text-anchor="start" x="587.54" y="-450.65" font-family="ArialMT" font-size="10.00">encrypted_password </text>
<text xml:space="preserve" text-anchor="start" x="680.54" y="-450.65" font-family="Arial ItalicMT" font-size="10.00" fill="#999999">string ∗</text>
<text xml:space="preserve" text-anchor="start" x="587.54" y="-435.9" font-family="ArialMT" font-size="10.00">provider </text>
<text xml:space="preserve" text-anchor="start" x="625.04" y="-435.9" font-family="Arial ItalicMT" font-size="10.00" fill="#999999">string</text>
<text xml:space="preserve" text-anchor="start" x="587.54" y="-422.65" font-family="ArialMT" font-size="10.00">remember_created_at </text>
<text xml:space="preserve" text-anchor="start" x="685.04" y="-422.65" font-family="Arial ItalicMT" font-size="10.00" fill="#999999">datetime (6,0)</text>
<text xml:space="preserve" text-anchor="start" x="587.54" y="-409.4" font-family="ArialMT" font-size="10.00">reset_password_sent_at </text>
<text xml:space="preserve" text-anchor="start" x="697.04" y="-409.4" font-family="Arial ItalicMT" font-size="10.00" fill="#999999">datetime (6,0)</text>
<text xml:space="preserve" text-anchor="start" x="587.54" y="-396.15" font-family="ArialMT" font-size="10.00">reset_password_token </text>
<text xml:space="preserve" text-anchor="start" x="688.79" y="-396.15" font-family="Arial ItalicMT" font-size="10.00" fill="#999999">string</text>
<text xml:space="preserve" text-anchor="start" x="587.54" y="-382.9" font-family="ArialMT" font-size="10.00">role </text>
<text xml:space="preserve" text-anchor="start" x="606.29" y="-382.9" font-family="Arial ItalicMT" font-size="10.00" fill="#999999">integer ∗</text>
<text xml:space="preserve" text-anchor="start" x="587.54" y="-368.15" font-family="ArialMT" font-size="10.00">uid </text>
<text xml:space="preserve" text-anchor="start" x="603.29" y="-368.15" font-family="Arial ItalicMT" font-size="10.00" fill="#999999">string</text>
<text xml:space="preserve" text-anchor="start" x="587.54" y="-354.9" font-family="ArialMT" font-size="10.00">username </text>
<text xml:space="preserve" text-anchor="start" x="633.29" y="-354.9" font-family="Arial ItalicMT" font-size="10.00" fill="#999999">string ∗</text>
</g>
<!-- m_Favorite -->
<g id="node10" class="node">
<title>m_Favorite</title>
<path fill="none" stroke="black" d="M266.25,-191.1C266.25,-191.1 386.33,-191.1 386.33,-191.1 392.33,-191.1 398.33,-197.1 398.33,-203.1 398.33,-203.1 398.33,-215.1 398.33,-215.1 398.33,-221.1 392.33,-227.1 386.33,-227.1 386.33,-227.1 266.25,-227.1 266.25,-227.1 260.25,-227.1 254.25,-221.1 254.25,-215.1 254.25,-215.1 254.25,-203.1 254.25,-203.1 254.25,-197.1 260.25,-191.1 266.25,-191.1"/>
<text xml:space="preserve" text-anchor="start" x="304.79" y="-205.05" font-family="Arial BoldMT" font-size="11.00">Favorite</text>
</g>
<!-- m_Order -->
<g id="node12" class="node">
<title>m_Order</title>
<path fill="none" stroke="black" d="M612.25,-110.15C612.25,-110.15 732.33,-110.15 732.33,-110.15 738.33,-110.15 744.33,-116.15 744.33,-122.15 744.33,-122.15 744.33,-296.05 744.33,-296.05 744.33,-302.05 738.33,-308.05 732.33,-308.05 732.33,-308.05 612.25,-308.05 612.25,-308.05 606.25,-308.05 600.25,-302.05 600.25,-296.05 600.25,-296.05 600.25,-122.15 600.25,-122.15 600.25,-116.15 606.25,-110.15 612.25,-110.15"/>
<text xml:space="preserve" text-anchor="start" x="656.41" y="-294" font-family="Arial BoldMT" font-size="11.00">Order</text>
<polyline fill="none" stroke="black" points="600.25,-288.85 744.33,-288.85"/>
<text xml:space="preserve" text-anchor="start" x="607.29" y="-274.75" font-family="ArialMT" font-size="10.00">shipping_address1 </text>
<text xml:space="preserve" text-anchor="start" x="691.29" y="-274.75" font-family="Arial ItalicMT" font-size="10.00" fill="#999999">string ∗</text>
<text xml:space="preserve" text-anchor="start" x="607.29" y="-260" font-family="ArialMT" font-size="10.00">shipping_address2 </text>
<text xml:space="preserve" text-anchor="start" x="691.29" y="-260" font-family="Arial ItalicMT" font-size="10.00" fill="#999999">string</text>
<text xml:space="preserve" text-anchor="start" x="607.29" y="-246.75" font-family="ArialMT" font-size="10.00">shipping_city </text>
<text xml:space="preserve" text-anchor="start" x="667.29" y="-246.75" font-family="Arial ItalicMT" font-size="10.00" fill="#999999">string ∗</text>
<text xml:space="preserve" text-anchor="start" x="607.29" y="-232" font-family="ArialMT" font-size="10.00">shipping_fee_yen </text>
<text xml:space="preserve" text-anchor="start" x="686.04" y="-232" font-family="Arial ItalicMT" font-size="10.00" fill="#999999">integer ∗</text>
<text xml:space="preserve" text-anchor="start" x="607.29" y="-217.25" font-family="ArialMT" font-size="10.00">shipping_name </text>
<text xml:space="preserve" text-anchor="start" x="675.54" y="-217.25" font-family="Arial ItalicMT" font-size="10.00" fill="#999999">string ∗</text>
<text xml:space="preserve" text-anchor="start" x="607.29" y="-202.5" font-family="ArialMT" font-size="10.00">shipping_phone </text>
<text xml:space="preserve" text-anchor="start" x="677.79" y="-202.5" font-family="Arial ItalicMT" font-size="10.00" fill="#999999">string ∗</text>
<text xml:space="preserve" text-anchor="start" x="607.29" y="-187.75" font-family="ArialMT" font-size="10.00">shipping_postal_code </text>
<text xml:space="preserve" text-anchor="start" x="704.04" y="-187.75" font-family="Arial ItalicMT" font-size="10.00" fill="#999999">string ∗</text>
<text xml:space="preserve" text-anchor="start" x="607.29" y="-173" font-family="ArialMT" font-size="10.00">shipping_prefecture </text>
<text xml:space="preserve" text-anchor="start" x="695.04" y="-173" font-family="Arial ItalicMT" font-size="10.00" fill="#999999">string ∗</text>
<text xml:space="preserve" text-anchor="start" x="607.29" y="-158.25" font-family="ArialMT" font-size="10.00">shipping_yen </text>
<text xml:space="preserve" text-anchor="start" x="667.29" y="-158.25" font-family="Arial ItalicMT" font-size="10.00" fill="#999999">integer</text>
<text xml:space="preserve" text-anchor="start" x="607.29" y="-145" font-family="ArialMT" font-size="10.00">status </text>
<text xml:space="preserve" text-anchor="start" x="637.29" y="-145" font-family="Arial ItalicMT" font-size="10.00" fill="#999999">string</text>
<text xml:space="preserve" text-anchor="start" x="607.29" y="-131.75" font-family="ArialMT" font-size="10.00">subtotal_yen </text>
<text xml:space="preserve" text-anchor="start" x="665.79" y="-131.75" font-family="Arial ItalicMT" font-size="10.00" fill="#999999">integer</text>
<text xml:space="preserve" text-anchor="start" x="607.29" y="-118.5" font-family="ArialMT" font-size="10.00">total_yen </text>
<text xml:space="preserve" text-anchor="start" x="650.04" y="-118.5" font-family="Arial ItalicMT" font-size="10.00" fill="#999999">integer</text>
</g>
<!-- m_OrderItem -->
<g id="node13" class="node">
<title>m_OrderItem</title>
<path fill="none" stroke="black" d="M1074.25,-0.5C1074.25,-0.5 1194.33,-0.5 1194.33,-0.5 1200.33,-0.5 1206.33,-6.5 1206.33,-12.5 1206.33,-12.5 1206.33,-61.15 1206.33,-61.15 1206.33,-67.15 1200.33,-73.15 1194.33,-73.15 1194.33,-73.15 1074.25,-73.15 1074.25,-73.15 1068.25,-73.15 1062.25,-67.15 1062.25,-61.15 1062.25,-61.15 1062.25,-12.5 1062.25,-12.5 1062.25,-6.5 1068.25,-0.5 1074.25,-0.5"/>
<text xml:space="preserve" text-anchor="start" x="1107.91" y="-59.1" font-family="Arial BoldMT" font-size="11.00">OrderItem</text>
<polyline fill="none" stroke="black" points="1062.25,-53.95 1206.33,-53.95"/>
<text xml:space="preserve" text-anchor="start" x="1069.29" y="-39.85" font-family="ArialMT" font-size="10.00">line_total_yen </text>
<text xml:space="preserve" text-anchor="start" x="1132.29" y="-39.85" font-family="Arial ItalicMT" font-size="10.00" fill="#999999">integer ∗</text>
<text xml:space="preserve" text-anchor="start" x="1069.29" y="-25.1" font-family="ArialMT" font-size="10.00">quantity </text>
<text xml:space="preserve" text-anchor="start" x="1106.79" y="-25.1" font-family="Arial ItalicMT" font-size="10.00" fill="#999999">integer ∗</text>
<text xml:space="preserve" text-anchor="start" x="1069.29" y="-10.35" font-family="ArialMT" font-size="10.00">unit_price_yen </text>
<text xml:space="preserve" text-anchor="start" x="1135.29" y="-10.35" font-family="Arial ItalicMT" font-size="10.00" fill="#999999">integer ∗</text>
</g>
<!-- m_Order&#45;&gt;m_OrderItem -->
<g id="edge8" class="edge">
<title>m_Order&#45;&gt;m_OrderItem</title>
<path fill="none" stroke="black" d="M744.8,-118.55C749.16,-115.3 753.66,-112.3 758.29,-109.65 849.65,-57.25 971.98,-42.2 1051.93,-38.34"/>
<polygon fill="black" stroke="black" points="1051.59,-41.51 1060.44,-37.97 1051.31,-35.21 1051.59,-41.51"/>
</g>
<!-- m_Product&#45;&gt;m_ActiveStorage::Attachment -->
<g id="edge4" class="edge">
<title>m_Product&#45;&gt;m_ActiveStorage::Attachment</title>
<path fill="none" stroke="black" d="M326.29,-420.87C271.38,-362.85 213.69,-289.74 180.74,-246.64"/>
<polygon fill="black" stroke="black" points="183.37,-244.89 175.41,-239.64 178.36,-248.71 183.37,-244.89"/>
<path fill="none" stroke="black" d="M600.01,-567.51C522.73,-546.13 401.24,-502.07 326.29,-422.87"/>
</g>
<!-- m_Product&#45;&gt;m_ActiveStorage::Blob -->
<g id="edge16" class="edge">
<title>m_Product&#45;&gt;m_ActiveStorage::Blob</title>
<path fill="none" stroke="black" stroke-dasharray="1,5" d="M599.85,-569.67C525.25,-554.13 405.89,-527.88 304.29,-499.2 255.47,-485.42 201.61,-467.52 158.51,-452.52"/>
<polygon fill="black" stroke="black" points="159.61,-449.57 150.07,-449.57 157.53,-455.51 159.61,-449.57"/>
</g>
<!-- m_Product&#45;&gt;m_CartItem -->
<g id="edge24" class="edge">
<title>m_Product&#45;&gt;m_CartItem</title>
<path fill="none" stroke="black" d="M744.68,-574.45C804.45,-563.62 889.38,-541.76 952.29,-499.2 1078.05,-414.13 1211.94,-340.57 1134.29,-210.1"/>
<path fill="none" stroke="black" d="M1134.29,-208.1C1119.21,-165.05 1140.14,-139.08 1105.29,-109.65 1066.03,-76.5 738.29,-52.35 581.82,-42.59"/>
<polygon fill="black" stroke="black" points="582.46,-39.47 573.28,-42.06 582.07,-45.76 582.46,-39.47"/>
</g>
<!-- m_Product&#45;&gt;m_Conversation -->
<g id="edge21" class="edge">
<title>m_Product&#45;&gt;m_Conversation</title>
<path fill="none" stroke="black" d="M734.32,-535.24C748.84,-523.55 764.19,-511.03 778.29,-499.2 798.84,-481.95 821.63,-461.93 838.72,-446.72"/>
<polygon fill="black" stroke="black" points="840.4,-449.44 845.02,-441.1 836.21,-444.74 840.4,-449.44"/>
</g>
<!-- m_Product&#45;&gt;m_Favorite -->
<g id="edge17" class="edge">
<title>m_Product&#45;&gt;m_Favorite</title>
<path fill="none" stroke="black" d="M326.29,-420.87C279.37,-371.3 300.83,-282.05 315.93,-237.28"/>
<polygon fill="black" stroke="black" points="318.88,-238.37 318.9,-228.84 312.94,-236.28 318.88,-238.37"/>
</g>
<!-- m_Product&#45;&gt;m_OrderItem -->
<g id="edge9" class="edge">
<title>m_Product&#45;&gt;m_OrderItem</title>
<path fill="none" stroke="black" d="M1134.29,-208.1C1120.21,-167.9 1121.98,-119.01 1126.22,-83.94"/>
<polygon fill="black" stroke="black" points="1129.34,-84.37 1127.4,-75.03 1123.09,-83.54 1129.34,-84.37"/>
</g>
<!-- m_Product&#45;&gt;m_User -->
<g id="edge13" class="edge">
<title>m_Product&#45;&gt;m_User</title>
<path fill="none" stroke="black" d="M672.29,-535.41C672.29,-527.14 672.29,-518.34 672.29,-509.45"/>
<polygon fill="black" stroke="black" points="675.44,-509.5 672.29,-500.5 669.14,-509.5 675.44,-509.5"/>
</g>
<!-- m_User&#45;&gt;m_ActiveStorage::Attachment -->
<g id="edge5" class="edge">
<title>m_User&#45;&gt;m_ActiveStorage::Attachment</title>
<path fill="none" stroke="black" d="M580.13,-400.03C461.85,-372.8 268.34,-326.49 239.29,-308.55 214.17,-293.04 192.38,-267.87 177.01,-246.87"/>
<polygon fill="black" stroke="black" points="179.69,-245.2 171.91,-239.69 174.56,-248.85 179.69,-245.2"/>
</g>
<!-- m_User&#45;&gt;m_Cart -->
<g id="edge25" class="edge">
<title>m_User&#45;&gt;m_Cart</title>
<path fill="none" stroke="black" d="M609.83,-344.78C574.99,-302.33 534.49,-252.99 513.52,-227.44"/>
</g>
<!-- m_User&#45;&gt;m_ConversationParticipant -->
<g id="edge20" class="edge">
<title>m_User&#45;&gt;m_ConversationParticipant</title>
<path fill="none" stroke="black" d="M734.75,-344.78C766.32,-306.31 802.54,-262.18 824.67,-235.23"/>
<polygon fill="black" stroke="black" points="826.82,-237.56 830.1,-228.61 821.95,-233.57 826.82,-237.56"/>
</g>
<!-- m_User&#45;&gt;m_Favorite -->
<g id="edge18" class="edge">
<title>m_User&#45;&gt;m_Favorite</title>
<path fill="none" stroke="black" d="M580.12,-392.42C527.88,-373.62 463.04,-345.57 412.29,-308.55 384.57,-288.33 359.6,-257.66 343.8,-235.93"/>
<polygon fill="black" stroke="black" points="346.47,-234.25 338.68,-228.75 341.34,-237.9 346.47,-234.25"/>
</g>
<!-- m_User&#45;&gt;m_Message -->
<g id="edge12" class="edge">
<title>m_User&#45;&gt;m_Message</title>
<path fill="none" stroke="black" d="M764.39,-351.49C769,-348.99 773.65,-346.66 778.29,-344.55 842.27,-315.45 872.05,-344.76 932.29,-308.55 960.8,-291.42 984.85,-261.64 1000.2,-239.3"/>
<polygon fill="black" stroke="black" points="1002.63,-241.34 1005.01,-232.11 997.39,-237.85 1002.63,-241.34"/>
</g>
<!-- m_User&#45;&gt;m_Order -->
<g id="edge10" class="edge">
<title>m_User&#45;&gt;m_Order</title>
<path fill="none" stroke="black" d="M672.29,-344.78C672.29,-336.31 672.29,-327.56 672.29,-318.77"/>
<polygon fill="black" stroke="black" points="675.44,-318.98 672.29,-309.98 669.14,-318.98 675.44,-318.98"/>
</g>
</g>
</svg>
